<svg width="46" height="46" viewBox="0 0 46 46" fill="none" xmlns="http://www.w3.org/2000/svg">
<path d="M19.0631 31.5872C21.8165 30.0662 33.489 19.629 36.2744 16.5381C39.0597 13.4471 39.8954 9.73636 37.1207 9.21139C34.346 8.68642 22.4432 17.5189 16.6036 22.5249C13.7955 24.9321 11.5669 29.1423 12.9551 31.3513C14.3434 33.5603 16.3097 33.1083 19.0631 31.5872Z" fill="#007C89"/>
<path d="M10.8427 21.4466C11.5277 18.7793 11.4383 9.36612 11.0856 5.73668C10.7328 2.10724 8.75195 -0.65157 6.6754 0.801819C4.59885 2.25521 3.36524 7.58212 3.1116 14.307C2.98963 17.5407 4.23498 29.0445 6.58513 29.485C8.93529 29.9255 10.1577 24.1139 10.8427 21.4466Z" fill="#007C89"/>
<path d="M33.89 35.0138C31.3638 34.5066 22.5873 35.2177 19.221 35.8094C15.8547 36.4011 13.3907 38.5595 14.8616 40.5352C16.3325 42.5109 21.3702 43.3897 27.6578 43.1985C30.6813 43.1065 41.344 41.1041 41.6247 38.7304C41.9054 36.3567 36.4162 35.521 33.89 35.0138Z" fill="#007C89"/>
</svg>
