<svg width="512" height="512" viewBox="0 0 512 512" fill="none" xmlns="http://www.w3.org/2000/svg">
<path opacity="0.25" fill-rule="evenodd" clip-rule="evenodd" d="M256 509.952C382.976 509.952 485.717 407.211 485.717 280.235C485.717 153.259 382.976 50.5173 256 50.5173C129.024 50.5173 26.2827 153.6 26.2827 280.235C26.2827 407.211 129.024 509.952 256 509.952Z" fill="#241C15"/>
<path fill-rule="evenodd" clip-rule="evenodd" d="M256 461.483C382.976 461.483 485.717 358.741 485.717 231.765C485.717 104.789 382.976 2.048 256 2.048C129.024 2.048 26.2827 104.789 26.2827 231.765C26.2827 358.4 129.024 461.483 256 461.483Z" fill="#241C15"/>
<path fill-rule="evenodd" clip-rule="evenodd" d="M256 486.059C382.976 486.059 485.717 383.317 485.717 256.341C485.717 129.707 382.976 26.624 256 26.624C129.024 26.624 26.2827 129.707 26.2827 256.341C26.2827 383.317 129.024 486.059 256 486.059Z" fill="#241C15"/>
<path fill-rule="evenodd" clip-rule="evenodd" d="M470.699 231.765C470.699 350.208 374.784 446.123 256.341 446.123C137.899 446.123 41.6426 350.208 41.6426 231.765C41.3013 113.323 137.557 17.0667 256 17.0667C374.443 17.0667 470.699 113.323 470.699 231.765Z" fill="#00A4B5"/>
<path d="M226.645 55.9787C240.64 36.864 269.312 36.864 283.307 55.9787L325.973 114.347C330.411 120.149 336.555 124.587 343.381 126.976L411.989 149.504C434.517 157.013 443.392 184.32 429.397 203.435L387.072 262.144C382.635 267.947 380.587 275.115 380.587 282.624L380.245 354.987C380.245 378.88 357.035 395.605 334.507 388.437L265.557 366.251C258.731 363.861 250.88 363.861 244.053 366.251L175.104 388.437C152.576 395.605 129.365 378.88 129.365 354.987L129.024 282.624C129.024 275.115 126.635 267.947 122.539 262.144L79.872 203.435C66.2187 184.32 75.0933 157.013 97.6213 149.504L166.229 126.976C173.056 124.587 179.2 120.149 183.637 114.347L226.645 55.9787Z" fill="#007C89"/>
<path fill-rule="evenodd" clip-rule="evenodd" d="M390.827 230.059C395.264 238.592 397.312 248.149 397.312 258.048C397.312 272.384 391.168 284.672 380.587 294.229C377.515 297.301 374.101 299.691 370.347 301.739V312.661L366.592 316.757C356.011 328.704 340.309 333.483 323.584 333.483C311.637 333.483 300.032 330.752 290.816 324.267C280.917 317.44 275.797 307.2 275.115 295.595C271.019 292.523 266.923 289.451 263.509 285.696C261.12 292.181 257.365 297.984 252.245 303.104L247.808 307.541H123.221L118.784 300.715C110.933 288.768 106.837 275.456 106.837 261.12C106.837 247.808 109.568 235.52 115.371 224.939L117.077 222.208C108.544 211.627 104.107 198.997 104.107 184.32C104.107 163.157 112.64 145.749 129.707 133.12C137.216 127.317 145.749 123.221 155.307 120.491C164.523 117.76 174.763 116.395 185.344 116.395C207.189 116.395 226.304 122.197 242.005 134.827C252.245 143.019 259.413 153.259 263.509 164.864C267.264 161.109 271.019 157.696 275.456 154.965V139.947L278.528 135.851C283.307 129.024 290.475 124.928 297.984 122.197C305.493 119.467 313.685 118.101 322.219 118.101C334.507 118.101 346.112 120.491 355.669 127.317C364.544 133.461 369.323 142.336 371.029 152.235C378.539 157.013 385.024 162.816 390.144 169.643C396.971 179.2 399.701 190.464 399.701 202.752C398.677 212.651 395.947 221.867 390.827 230.059Z" fill="#241C15"/>
<path d="M363.861 238.933C359.083 240.64 353.963 241.323 348.501 241.323C338.261 241.323 330.069 238.251 323.243 232.448C317.44 227.328 314.368 221.867 314.368 216.064C314.368 213.333 316.075 212.309 319.829 212.309C320.853 219.477 323.925 224.939 329.387 229.376C334.848 233.813 341.675 235.861 349.867 235.861C359.765 235.861 367.957 232.789 374.101 226.645C380.245 220.501 383.317 212.309 383.317 202.752C383.317 183.979 373.76 169.984 354.987 161.451V158.72C354.987 150.187 351.915 143.701 345.771 139.605C339.627 135.509 331.435 133.12 320.853 133.12C314.027 133.12 307.883 134.144 302.08 136.533C296.277 138.581 292.181 141.312 289.451 144.725V157.355C291.499 156.331 293.547 155.307 296.277 154.624C298.667 153.941 300.715 153.259 302.08 153.259C304.469 153.259 305.493 154.624 305.493 157.696C290.816 161.451 278.869 168.619 269.653 179.541C259.755 191.488 254.976 206.848 254.976 225.28C254.976 239.275 258.048 251.904 264.192 262.827C270.336 273.749 278.869 281.941 289.451 287.403V293.205C289.451 301.397 292.523 307.883 298.667 312.32C304.811 316.757 313.003 318.805 322.901 318.805C337.237 318.805 347.819 315.051 354.645 307.2V297.984C350.208 299.349 346.453 300.032 343.04 300.032C339.627 300.032 338.261 298.667 338.261 295.936V294.912C351.232 294.571 361.813 290.816 369.664 283.307C377.515 275.797 381.611 267.264 381.611 258.048C381.611 248.832 379.221 240.299 374.443 233.131C372.395 235.179 368.64 237.227 363.861 238.933Z" fill="white"/>
<path d="M224.256 242.688C217.088 245.76 211.285 247.467 206.165 247.467C203.435 247.467 202.069 245.76 202.069 242.688C218.795 239.275 231.765 232.789 240.299 222.891C248.149 214.016 251.904 203.093 251.904 190.123C251.904 172.032 245.077 157.696 231.765 146.773C219.477 136.875 203.776 131.755 184.661 131.755C165.888 131.755 150.187 136.192 138.24 145.408C125.269 154.965 118.784 167.936 118.784 184.661C118.784 201.045 125.952 214.016 140.629 223.915C148.48 221.867 156.672 218.112 165.205 212.992C173.397 207.872 179.883 202.411 183.637 196.608C180.907 194.56 179.2 191.488 179.2 187.392C179.2 183.296 181.248 180.907 185.344 180.907C187.392 180.907 188.757 181.589 189.781 183.296C190.805 185.003 191.488 186.709 191.488 189.44C191.488 198.656 185.003 207.531 172.032 215.723C159.061 223.915 144.384 229.717 128.341 232.789C123.904 240.64 121.856 250.197 121.856 261.461C121.856 272.725 124.928 283.307 131.413 292.523H241.664C248.832 285.355 252.587 275.115 252.587 262.485C252.587 249.856 248.832 239.616 240.981 231.765C236.885 235.861 231.424 239.616 224.256 242.688Z" fill="white"/>
</svg>
