<svg width="512" height="513" viewBox="0 0 512 513" fill="none" xmlns="http://www.w3.org/2000/svg">
<path opacity="0.25" fill-rule="evenodd" clip-rule="evenodd" d="M256 462.558C359.168 462.558 442.645 379.08 442.645 275.912C442.645 172.744 359.168 89.267 256 89.267C152.832 89.267 69.3547 173.022 69.3547 275.912C69.3547 379.08 152.832 462.558 256 462.558Z" fill="#241C15"/>
<path fill-rule="evenodd" clip-rule="evenodd" d="M256 423.176C359.168 423.176 442.645 339.699 442.645 236.531C442.645 133.363 359.168 49.8856 256 49.8856C152.832 49.8856 69.3547 133.363 69.3547 236.531C69.3547 339.422 152.832 423.176 256 423.176Z" fill="#241C15"/>
<path fill-rule="evenodd" clip-rule="evenodd" d="M256 443.144C359.168 443.144 442.645 359.667 442.645 256.499C442.645 153.608 359.168 69.8536 256 69.8536C152.832 69.8536 69.3547 153.608 69.3547 256.499C69.3547 359.667 152.832 443.144 256 443.144Z" fill="#241C15"/>
<path fill-rule="evenodd" clip-rule="evenodd" d="M430.443 236.531C430.443 332.766 352.512 410.696 256.277 410.696C160.043 410.696 81.8347 332.766 81.8347 236.531C81.5573 140.296 159.765 62.0883 256 62.0883C352.235 62.0883 430.443 140.296 430.443 236.531Z" fill="#00A4B5"/>
<path d="M232.149 93.7043C243.52 78.1736 266.816 78.1736 278.187 93.7043L312.853 141.128C316.459 145.843 321.451 149.448 326.997 151.39L382.741 169.694C401.045 175.795 408.256 197.982 396.885 213.512L362.496 261.214C358.891 265.928 357.227 271.752 357.227 277.854L356.949 336.648C356.949 356.062 338.091 369.651 319.787 363.827L263.765 345.8C258.219 343.859 251.84 343.859 246.293 345.8L190.272 363.827C171.968 369.651 153.109 356.062 153.109 336.648L152.832 277.854C152.832 271.752 150.891 265.928 147.563 261.214L112.896 213.512C101.803 197.982 109.013 175.795 127.317 169.694L183.061 151.39C188.608 149.448 193.6 145.843 197.205 141.128L232.149 93.7043Z" fill="#007C89"/>
<path fill-rule="evenodd" clip-rule="evenodd" d="M365.547 235.144C369.152 242.078 370.816 249.843 370.816 257.886C370.816 269.534 365.824 279.518 357.227 287.283C354.731 289.779 351.957 291.72 348.907 293.384V302.259L345.856 305.587C337.259 315.294 324.501 319.176 310.912 319.176C301.205 319.176 291.776 316.958 284.288 311.688C276.245 306.142 272.085 297.822 271.531 288.392C268.203 285.896 264.875 283.4 262.101 280.35C260.16 285.619 257.109 290.334 252.949 294.494L249.344 298.099H148.117L144.512 292.552C138.133 282.846 134.805 272.03 134.805 260.382C134.805 249.566 137.024 239.582 141.739 230.984L143.125 228.766C136.192 220.168 132.587 209.907 132.587 197.982C132.587 180.787 139.52 166.643 153.387 156.382C159.488 151.667 166.421 148.339 174.187 146.12C181.675 143.902 189.995 142.792 198.592 142.792C216.341 142.792 231.872 147.507 244.629 157.768C252.949 164.424 258.773 172.744 262.101 182.174C265.152 179.123 268.203 176.35 271.808 174.131V161.928L274.304 158.6C278.187 153.054 284.011 149.726 290.112 147.507C296.213 145.288 302.869 144.179 309.803 144.179C319.787 144.179 329.216 146.12 336.981 151.667C344.192 156.659 348.075 163.87 349.461 171.912C355.563 175.795 360.832 180.51 364.992 186.056C370.539 193.822 372.757 202.974 372.757 212.958C371.925 221 369.707 228.488 365.547 235.144Z" fill="#241C15"/>
<path d="M343.637 242.355C339.755 243.742 335.595 244.296 331.157 244.296C322.837 244.296 316.181 241.8 310.635 237.086C305.92 232.926 303.424 228.488 303.424 223.774C303.424 221.555 304.811 220.723 307.861 220.723C308.693 226.547 311.189 230.984 315.627 234.59C320.064 238.195 325.611 239.859 332.267 239.859C340.309 239.859 346.965 237.363 351.957 232.371C356.949 227.379 359.445 220.723 359.445 212.958C359.445 197.704 351.68 186.334 336.427 179.4V177.182C336.427 170.248 333.931 164.979 328.939 161.651C323.947 158.323 317.291 156.382 308.693 156.382C303.147 156.382 298.155 157.214 293.44 159.155C288.725 160.819 285.397 163.038 283.179 165.811V176.072C284.843 175.24 286.507 174.408 288.725 173.854C290.667 173.299 292.331 172.744 293.44 172.744C295.381 172.744 296.213 173.854 296.213 176.35C284.288 179.4 274.581 185.224 267.093 194.099C259.051 203.806 255.168 216.286 255.168 231.262C255.168 242.632 257.664 252.894 262.656 261.768C267.648 270.643 274.581 277.299 283.179 281.736V286.451C283.179 293.107 285.675 298.376 290.667 301.982C295.659 305.587 302.315 307.251 310.357 307.251C322.005 307.251 330.603 304.2 336.149 297.822V290.334C332.544 291.443 329.493 291.998 326.72 291.998C323.947 291.998 322.837 290.888 322.837 288.67V287.838C333.376 287.56 341.973 284.51 348.352 278.408C354.731 272.307 358.059 265.374 358.059 257.886C358.059 250.398 356.117 243.464 352.235 237.64C350.571 239.304 347.52 240.968 343.637 242.355Z" fill="white"/>
<path d="M230.208 245.406C224.384 247.902 219.669 249.288 215.509 249.288C213.291 249.288 212.181 247.902 212.181 245.406C225.771 242.632 236.309 237.363 243.243 229.32C249.621 222.11 252.672 213.235 252.672 202.696C252.672 187.998 247.125 176.35 236.309 167.475C226.325 159.432 213.568 155.272 198.037 155.272C182.784 155.272 170.027 158.878 160.32 166.366C149.781 174.131 144.512 184.67 144.512 198.259C144.512 211.571 150.336 222.11 162.261 230.152C168.64 228.488 175.296 225.438 182.229 221.278C188.885 217.118 194.155 212.68 197.205 207.966C194.987 206.302 193.6 203.806 193.6 200.478C193.6 197.15 195.264 195.208 198.592 195.208C200.256 195.208 201.365 195.763 202.197 197.15C203.029 198.536 203.584 199.923 203.584 202.142C203.584 209.63 198.315 216.84 187.776 223.496C177.237 230.152 165.312 234.867 152.277 237.363C148.672 243.742 147.008 251.507 147.008 260.659C147.008 269.811 149.504 278.408 154.773 285.896H244.352C250.176 280.072 253.227 271.752 253.227 261.491C253.227 251.23 250.176 242.91 243.797 236.531C240.469 239.859 236.032 242.91 230.208 245.406Z" fill="white"/>
</svg>
