<?xml version="1.0" encoding="utf-8"?>
<!-- Generator: Adobe Illustrator 28.2.0, SVG Export Plug-In . SVG Version: 6.00 Build 0)  -->
<svg version="1.1" id="Logo_00000059301579553089014570000012740045586794119090_"
	 xmlns="http://www.w3.org/2000/svg" xmlns:xlink="http://www.w3.org/1999/xlink" x="0px" y="0px" viewBox="0 0 150 150"
	 style="enable-background:new 0 0 150 150;" xml:space="preserve">
<style type="text/css">
	.st0{opacity:0.25;fill-rule:evenodd;clip-rule:evenodd;fill:#241C15;}
	.st1{fill-rule:evenodd;clip-rule:evenodd;fill:#241C15;}
	.st2{fill-rule:evenodd;clip-rule:evenodd;fill:#00A4B5;}
	.st3{fill:#007C89;}
	.st4{fill:#FFFFFF;}
</style>
<g id="logo">
	<path class="st0" d="M75,149.4c37.2,0,67.3-30.1,67.3-67.3c0-37.2-30.1-67.3-67.3-67.3C37.8,14.8,7.7,45,7.7,82.1
		C7.7,119.3,37.8,149.4,75,149.4z"/>
	<path class="st1" d="M75,135.2c37.2,0,67.3-30.1,67.3-67.3c0-37.2-30.1-67.3-67.3-67.3C37.8,0.6,7.7,30.7,7.7,67.9
		C7.7,105,37.8,135.2,75,135.2z"/>
	<path class="st1" d="M75,142.4c37.2,0,67.3-30.1,67.3-67.3C142.3,38,112.2,7.8,75,7.8C37.8,7.8,7.7,38,7.7,75.1
		C7.7,112.3,37.8,142.4,75,142.4z"/>
	<path class="st2" d="M137.9,67.9c0,34.7-28.1,62.8-62.8,62.8c-34.7,0-62.9-28.1-62.9-62.8C12.1,33.2,40.3,5,75,5
		C109.7,5,137.9,33.2,137.9,67.9z"/>
	<path class="st3" d="M66.4,16.4c4.1-5.6,12.5-5.6,16.6,0l12.5,17.1c1.3,1.7,3.1,3,5.1,3.7l20.1,6.6c6.6,2.2,9.2,10.2,5.1,15.8
		l-12.4,17.2c-1.3,1.7-1.9,3.8-1.9,6l-0.1,21.2c0,7-6.8,11.9-13.4,9.8l-20.2-6.5c-2-0.7-4.3-0.7-6.3,0l-20.2,6.5
		c-6.6,2.1-13.4-2.8-13.4-9.8l-0.1-21.2c0-2.2-0.7-4.3-1.9-6L23.4,59.6C19.4,54,22,46,28.6,43.8l20.1-6.6c2-0.7,3.8-2,5.1-3.7
		L66.4,16.4z"/>
	<path class="st1" d="M114.5,67.4c1.3,2.5,1.9,5.3,1.9,8.2c0,4.2-1.8,7.8-4.9,10.6c-0.9,0.9-1.9,1.6-3,2.2v3.2l-1.1,1.2
		c-3.1,3.5-7.7,4.9-12.6,4.9c-3.5,0-6.9-0.8-9.6-2.7c-2.9-2-4.4-5-4.6-8.4c-1.2-0.9-2.4-1.8-3.4-2.9c-0.7,1.9-1.8,3.6-3.3,5.1
		l-1.3,1.3H36.1l-1.3-2c-2.3-3.5-3.5-7.4-3.5-11.6c0-3.9,0.8-7.5,2.5-10.6l0.5-0.8c-2.5-3.1-3.8-6.8-3.8-11.1c0-6.2,2.5-11.3,7.5-15
		c2.2-1.7,4.7-2.9,7.5-3.7c2.7-0.8,5.7-1.2,8.8-1.2c6.4,0,12,1.7,16.6,5.4h0l0,0c3,2.4,5.1,5.4,6.3,8.8c1.1-1.1,2.2-2.1,3.5-2.9V41
		l0.9-1.2c1.4-2,3.5-3.2,5.7-4c2.2-0.8,4.6-1.2,7.1-1.2c3.6,0,7,0.7,9.8,2.7c2.6,1.8,4,4.4,4.5,7.3c2.2,1.4,4.1,3.1,5.6,5.1
		c2,2.8,2.8,6.1,2.8,9.7C116.8,62.3,116,65,114.5,67.4z"/>
	<g>
		<path class="st4" d="M106.6,70c-1.4,0.5-2.9,0.7-4.5,0.7c-3,0-5.4-0.9-7.4-2.6c-1.7-1.5-2.6-3.1-2.6-4.8c0-0.8,0.5-1.1,1.6-1.1
			c0.3,2.1,1.2,3.7,2.8,5c1.6,1.3,3.6,1.9,6,1.9c2.9,0,5.3-0.9,7.1-2.7c1.8-1.8,2.7-4.2,2.7-7c0-5.5-2.8-9.6-8.3-12.1v-0.8
			c0-2.5-0.9-4.4-2.7-5.6c-1.8-1.2-4.2-1.9-7.3-1.9c-2,0-3.8,0.3-5.5,1c-1.7,0.6-2.9,1.4-3.7,2.4v3.7c0.6-0.3,1.2-0.6,2-0.8
			c0.7-0.2,1.3-0.4,1.7-0.4c0.7,0,1,0.4,1,1.3c-4.3,1.1-7.8,3.2-10.5,6.4c-2.9,3.5-4.3,8-4.3,13.4c0,4.1,0.9,7.8,2.7,11
			c1.8,3.2,4.3,5.6,7.4,7.2v1.7c0,2.4,0.9,4.3,2.7,5.6c1.8,1.3,4.2,1.9,7.1,1.9c4.2,0,7.3-1.1,9.3-3.4v-2.7
			c-1.3,0.4-2.4,0.6-3.4,0.6c-1,0-1.4-0.4-1.4-1.2v-0.3c3.8-0.1,6.9-1.2,9.2-3.4c2.3-2.2,3.5-4.7,3.5-7.4c0-2.7-0.7-5.2-2.1-7.3
			C109.1,68.9,108,69.5,106.6,70z"/>
		<path class="st4" d="M65.7,71.1c-2.1,0.9-3.8,1.4-5.3,1.4c-0.8,0-1.2-0.5-1.2-1.4c4.9-1,8.7-2.9,11.2-5.8c2.3-2.6,3.4-5.8,3.4-9.6
			c0-5.3-2-9.5-5.9-12.7c-3.6-2.9-8.2-4.4-13.8-4.4c-5.5,0-10.1,1.3-13.6,4c-3.8,2.8-5.7,6.6-5.7,11.5c0,4.8,2.1,8.6,6.4,11.5
			c2.3-0.6,4.7-1.7,7.2-3.2c2.4-1.5,4.3-3.1,5.4-4.8c-0.8-0.6-1.3-1.5-1.3-2.7c0-1.2,0.6-1.9,1.8-1.9c0.6,0,1,0.2,1.3,0.7
			c0.3,0.5,0.5,1,0.5,1.8c0,2.7-1.9,5.3-5.7,7.7c-3.8,2.4-8.1,4.1-12.8,5c-1.3,2.3-1.9,5.1-1.9,8.4c0,3.3,0.9,6.4,2.8,9.1h32.3
			c2.1-2.1,3.2-5.1,3.2-8.8c0-3.7-1.1-6.7-3.4-9C69.4,69.1,67.8,70.2,65.7,71.1z"/>
	</g>
</g>
</svg>
