<?xml version="1.0" encoding="utf-8"?>
<!-- Generator: Adobe Illustrator 28.2.0, SVG Export Plug-In . SVG Version: 6.00 Build 0)  -->
<svg version="1.1" id="Logo" xmlns="http://www.w3.org/2000/svg" xmlns:xlink="http://www.w3.org/1999/xlink" x="0px" y="0px"
	 viewBox="0 0 224.3 85.2" style="enable-background:new 0 0 224.3 85.2;" xml:space="preserve">
<style type="text/css">
	.st0{opacity:0.25;fill:#241C15;enable-background:new    ;}
	.st1{fill:#241C15;}
	.st2{fill:#00A4B5;}
	.st3{fill:#007C89;}
	.st4{fill-rule:evenodd;clip-rule:evenodd;fill:#241C15;}
	.st5{fill:#FFFFFF;}
</style>
<g id="logo">
	<g id="Shadows">
		<path class="st0" d="M142.3,38.1c0,0.3-0.1,0.5-0.2,0.8c0,0,0,0.1,0.1,0.1C142.3,38.7,142.4,38.4,142.3,38.1
			c0-0.5-0.1-0.9-0.2-1.3c0,0.1,0,0.1,0,0.2C142.2,37.3,142.2,37.7,142.3,38.1z"/>
		<path class="st0" d="M222.1,38.9c-0.1-0.3-0.1-0.7-0.2-1c0,0.1,0,0.2-0.1,0.3c0,0,0,0,0,0c0.1,0.3,0.1,0.7,0.1,1.1
			c0,0.6-0.2,1.1-0.3,1.7c-1.2,4.7-2.4,8.6-3.7,11.5c-0.9,1.9-2.3,3.3-4.2,4.1c-1.4,0.6-3.1,0.8-5,0.8c-1.1,0-2.1-0.1-3.2-0.3
			c-1-0.2-2-0.4-2.7-0.7L202,56l-0.4-0.8c-0.8-1.7-1.6-3.4-2.2-5.2c0,0.1,0,0.2-0.1,0.3l0,0c0,0.2,0,0.4,0,0.6c0,0.8,0,1.5-0.2,2.2
			l-0.2,0.8l-0.6,0.5c-1.2,1-2.5,1.8-3.9,2.3c-1.8,0.7-4,1-6.3,1c-4.1,0-7.6-1.1-10.2-3.7c-0.1-0.1-0.3-0.3-0.4-0.4
			c-0.3,0.6-0.8,1.2-1.4,1.8c-1.5,1.3-3.3,2-5.3,2c-1.2,0-2.4-0.2-3.5-0.8c-1.2,0.6-2.5,0.8-3.8,0.8c-2.1,0-4-0.5-5.8-1.4
			c-1.2-0.7-2.2-1.5-3.1-2.6c-0.4,0.5-0.7,1-1.2,1.5c-1.6,1.5-3.5,2.3-5.7,2.3c-2.2,0-4.1-0.8-5.7-2.4c-0.3-0.3-0.6-0.6-0.8-0.9
			c-0.4,0.4-0.8,0.8-1.3,1.2c-2.4,1.7-5.4,2.5-8.8,2.5c-3.3,0-6.1-0.6-8.4-1.9c-0.7-0.4-1.3-0.9-1.8-1.4c-0.3,0.3-0.6,0.7-1,1
			c-1.7,1.5-3.9,2-6.4,2c-2.6,0-4.9-0.7-6.7-2.4c-0.4-0.3-0.7-0.7-1-1.1c-0.3,0.5-0.7,1-1.1,1.4c-1.6,1.5-3.5,2.2-5.7,2.2
			c-1.9,0-3.7-0.5-5.2-1.7c-1.6,1.2-3.7,1.7-5.9,1.7c-1.8,0-3.4-0.5-4.8-1.5c-0.5-0.4-1-0.8-1.4-1.3c-1.2,0.9-2.4,1.6-3.7,2.1
			c-1.6,0.6-3.6,0.9-5.7,1c-0.9,2-1.9,4-3.2,5.8c-1.3,2-2.8,3.8-4.5,5.5c-1.7,1.7-3.5,3.2-5.4,4.5c-2,1.3-4,2.5-6.2,3.4
			c-2.2,0.9-4.5,1.7-6.9,2.2c-2.4,0.4-4.9,0.6-7.3,0.6c-2.5,0-4.9-0.3-7.4-0.8c-2.3-0.5-4.6-1.2-6.9-2.2c-2.2-0.9-4.2-2.1-6.2-3.4
			c-1.9-1.3-3.7-2.8-5.4-4.5c-1.7-1.7-3.2-3.5-4.5-5.5S5.9,59.2,5,57c-1.7-4.1-2.7-8.4-2.9-12.9c0,0.5,0,1,0,1.5c0,5,1,9.8,2.9,14.4
			c0.9,2.2,2.1,4.3,3.4,6.3s2.8,3.8,4.5,5.5c1.7,1.7,3.5,3.2,5.4,4.5c2,1.3,4,2.5,6.2,3.4c2.3,1,4.6,1.7,6.9,2.2
			c2.5,0.5,4.9,0.8,7.4,0.8c2.4,0,4.9-0.2,7.3-0.6c2.4-0.5,4.7-1.3,6.9-2.2c2.2-0.9,4.2-2.1,6.2-3.4c1.9-1.3,3.7-2.8,5.4-4.5
			c1.7-1.7,3.2-3.5,4.5-5.5c1.2-1.8,2.3-3.6,3.1-5.6c2.2,0,4.2-0.3,5.9-1c1.3-0.5,2.5-1.2,3.7-2.1c0.4,0.5,0.9,0.9,1.4,1.3
			c1.4,1,3,1.5,4.8,1.5c2.2,0,4.3-0.5,5.9-1.7c1.5,1.2,3.3,1.7,5.2,1.7c2.2,0,4.1-0.7,5.7-2.2c0.4-0.4,0.8-0.9,1.1-1.4
			c0.3,0.4,0.6,0.8,1,1.1c0.9,0.8,1.9,1.5,3,1.8c1.1,0.4,2.4,0.6,3.7,0.6c2.5,0,4.7-0.5,6.4-2c0.4-0.3,0.7-0.7,1-1
			c0.5,0.5,1.1,1,1.8,1.4c2.3,1.3,5.1,1.9,8.4,1.9c3.4,0,6.4-0.8,8.8-2.5c0.5-0.4,0.9-0.8,1.3-1.2c0.2,0.3,0.5,0.6,0.8,0.9
			c1.6,1.6,3.5,2.4,5.7,2.4s4.1-0.8,5.7-2.3c0.5-0.5,0.8-1,1.2-1.5c0.9,1.1,1.9,1.9,3.1,2.6c1.8,0.9,3.7,1.4,5.8,1.4
			c1.3,0,2.6-0.2,3.8-0.8c1.1,0.6,2.3,0.8,3.5,0.8c2,0,3.8-0.7,5.3-2c0.6-0.6,1.1-1.2,1.4-1.8c0.1,0.1,0.3,0.3,0.4,0.4
			c2.6,2.6,6.1,3.7,10.2,3.7c2.3,0,4.5-0.3,6.3-1c1.4-0.5,2.7-1.3,3.9-2.3l0.6-0.5l0.2-0.8c0.2-0.7,0.2-1.4,0.2-2.2
			c0-0.5,0-0.9-0.1-1.4c0.7,2,1.5,3.9,2.4,5.7l0.4,0.8l0.8,0.4c0.7,0.3,1.7,0.5,2.7,0.7c1.1,0.2,2.1,0.3,3.2,0.3
			c1.9,0,3.6-0.2,5-0.8c1.9-0.8,3.3-2.2,4.2-4.1c0.6-1.5,1.3-3.1,1.9-5.1c0.6-1.9,1.2-4.1,1.8-6.4c0.3-1.2,0.4-2.3,0.4-3.4
			C222.3,39.8,222.2,39.4,222.1,38.9z"/>
	</g>
	<g id="Coin">
		<path class="st1" d="M38.8,79.7c-2.5,0-4.9-0.3-7.4-0.8c-2.3-0.5-4.6-1.2-6.9-2.2c-2.2-0.9-4.2-2.1-6.2-3.4
			c-1.9-1.3-3.7-2.8-5.4-4.5c-1.7-1.7-3.2-3.5-4.5-5.5S5.9,59.2,5,57c-1.9-4.6-2.9-9.4-2.9-14.4s1-9.8,2.9-14.4
			c0.9-2.2,2-4.3,3.4-6.3c1.3-2,2.8-3.8,4.5-5.5s3.5-3.2,5.4-4.5c2-1.3,4-2.5,6.2-3.4c2.2-0.9,4.5-1.7,6.9-2.2s4.9-0.8,7.4-0.8
			s4.9,0.3,7.4,0.8c2.3,0.5,4.6,1.2,6.9,2.2c2,1.1,4.1,2.3,6.1,3.6c1.9,1.3,3.7,2.8,5.4,4.5c1.7,1.7,3.2,3.5,4.5,5.5
			s2.5,4.1,3.4,6.3c1.9,4.6,2.9,9.4,2.9,14.4s-1,9.8-2.9,14.4c-0.9,2.2-2,4.3-3.4,6.3c-1.3,2-2.8,3.8-4.5,5.5
			c-1.7,1.7-3.5,3.2-5.4,4.5c-2,1.3-4,2.5-6.2,3.4s-4.5,1.7-6.9,2.2C43.7,79.5,41.2,79.7,38.8,79.7z"/>
		<path class="st2" d="M62.8,15.3c-1.5-1.6-3.2-3-5-4.2S54,8.8,52,7.9c-4.2-1.8-8.6-2.7-13.2-2.7s-9.1,0.9-13.3,2.7
			c-2,0.9-4,1.9-5.8,3.2c-1.8,1.2-3.5,2.7-5,4.2c-1.5,1.6-2.9,3.3-4.2,5.1c-1.2,1.8-2.3,3.8-3.1,5.9c-1.8,4.3-2.7,8.8-2.7,13.5
			S5.6,49,7.4,53.3c0.9,2,1.9,4,3.1,5.9c1.2,1.8,2.6,3.5,4.2,5.1c1.5,1.6,3.2,3,5,4.2s3.8,2.3,5.8,3.2c4.2,1.8,8.7,2.7,13.3,2.7
			s9.1-0.9,13.3-2.7c2-0.9,4-1.9,5.8-3.2c1.8-1.2,3.5-2.7,5-4.2c1.5-1.6,2.9-3.3,4.2-5.1c1.2-1.8,2.3-3.8,3.1-5.9
			c1.8-4.3,2.7-8.8,2.7-13.5s-0.9-9.2-2.7-13.5c-0.9-2-1.9-4-3.1-5.9C65.8,18.6,64.4,16.9,62.8,15.3z"/>
		<path class="st1" d="M38.8,76.7c-2.5,0-4.9-0.3-7.4-0.8c-2.3-0.5-4.6-1.2-6.9-2.2c-2.2-0.9-4.2-2.1-6.2-3.4
			c-1.9-1.3-3.7-2.8-5.4-4.5c-1.7-1.7-3.2-3.5-4.5-5.5S5.9,56.2,5,54c-1.9-4.6-2.9-9.4-2.9-14.4s1-9.8,2.9-14.4
			c0.9-2.2,2-4.3,3.4-6.3c1.3-2,2.8-3.8,4.5-5.5s3.5-3.2,5.4-4.5c2-1.3,4-2.5,6.2-3.4s4.5-1.7,6.9-2.2s4.9-0.8,7.4-0.8
			s4.9,0.3,7.4,0.8c2.3,0.5,4.6,1.2,6.9,2.2c2,1.1,4.1,2.3,6.1,3.6c1.9,1.3,3.7,2.8,5.4,4.5c1.7,1.7,3.2,3.5,4.5,5.5
			s2.5,4.1,3.4,6.3c1.9,4.6,2.9,9.4,2.9,14.4s-1,9.8-2.9,14.4c-0.9,2.2-2,4.3-3.4,6.3c-1.3,2-2.8,3.8-4.5,5.5
			c-1.7,1.7-3.5,3.2-5.4,4.5c-2,1.3-4,2.5-6.2,3.4s-4.5,1.7-6.9,2.2C43.7,76.5,41.2,76.7,38.8,76.7z M38.8,5.2
			c-4.6,0-9.1,0.9-13.3,2.7c-2,0.9-4,1.9-5.8,3.2c-1.8,1.2-3.5,2.7-5,4.2c-1.5,1.6-2.9,3.3-4.2,5.1c-1.2,1.8-2.3,3.8-3.1,5.9
			c-1.8,4.3-2.7,8.8-2.7,13.5S5.6,49,7.4,53.3c0.9,2,1.9,4,3.1,5.9c1.2,1.8,2.6,3.5,4.2,5.1c1.5,1.6,3.2,3,5,4.2s3.8,2.3,5.8,3.2
			c4.2,1.8,8.7,2.7,13.3,2.7s9.1-0.9,13.3-2.7c2-0.9,4-1.9,5.8-3.2c1.8-1.2,3.5-2.7,5-4.2c1.5-1.6,2.9-3.3,4.2-5.1
			c1.2-1.8,2.3-3.8,3.1-5.9c1.8-4.3,2.7-8.8,2.7-13.5s-0.9-9.2-2.7-13.5c-0.9-2-1.9-4-3.1-5.9c-1.2-1.8-2.6-3.5-4.2-5.1
			c-1.5-1.6-3.2-3-5-4.2s-3.8-2.3-5.8-3.2C47.8,6.1,43.4,5.2,38.8,5.2z"/>
		<path class="st3" d="M34,11.6c2.3-3.1,6.9-3.1,9.2,0l6.7,9.3c0.7,1,1.7,1.7,2.8,2.1l10.9,3.6c3.6,1.2,5,5.6,2.8,8.7l-6.8,9.5
			c-0.7,1-1,2.1-1.1,3.3v11.6c0,3.8-3.8,6.6-7.4,5.4l-10.8-3.5c-1.1-0.4-2.4-0.4-3.5,0L26,65.1c-3.7,1.2-7.4-1.5-7.4-5.4V48.1
			c0-1.2-0.4-2.3-1.1-3.3l-6.8-9.5c-2.2-3.1-0.8-7.5,2.8-8.7L24.4,23c1.1-0.4,2.1-1.1,2.8-2.1L34,11.6z"/>
	</g>
	<g id="_x32__xA2_ents.dev">
		<path id="outline_00000098903064579299438290000015173409358356767373_" class="st4" d="M220.3,35.3L220.3,35.3L220.3,35.3
			c-1.5-1.5-3.5-2.1-5.7-2.1c-2.1,0-4,0.5-5.7,1.7l-0.2,0.1c-1.4-1.2-3.1-1.6-4.9-1.6h-6.1l-0.7,1.1c-0.3,0.4-0.5,0.8-0.7,1.3
			c-2.4-2-5.3-2.9-8.7-2.9c-3.6,0-6.8,1.2-9.3,3.6c-0.3,0.3-0.6,0.6-0.9,1v-3c0-2.2-0.7-4.1-2.3-5.6l0,0l0,0
			c-1.5-1.4-3.4-1.9-5.4-1.9c-1.5,0-3,0.2-4.2,0.9c-1.2,0.6-2.2,1.4-3,2.4l-0.2,0.2c0,0,0,0,0,0.1c0,0,0,0-0.1,0l-0.8,0.9l0.6,1.4
			c0.1,0.2,0.2,0.5,0.2,0.8c-2.7,0.4-5,1.5-6.9,3.5l0,0l0,0c-2,2.1-3.1,4.7-3.4,7.8c-1.2-0.7-2.5-1-3.9-1c-1.9,0-3.6,0.6-5,1.8
			c-0.3-0.5-0.6-1-1-1.5l0,0l0,0c-0.2-0.2-0.3-0.4-0.5-0.6c0.4-0.7,0.6-1.4,0.8-2.2c-0.1-0.1-0.2-0.2-0.3-0.3l0,0l0,0
			c-0.2-0.2-0.3-0.4-0.5-0.6c0.4-0.8,0.7-1.6,0.8-2.5c-0.1-0.6-0.2-1.2-0.5-1.7l-0.3-0.7l-0.7-0.4c-1.2-0.7-2.6-1.2-4.2-1.6
			c-1.6-0.4-3.3-0.6-5-0.6c-3.6,0-6.8,0.9-9.2,2.9c-0.2-0.4-0.4-0.8-0.6-1.1l-0.7-1.1h-2.3v-4.4l-1.9-0.4c-1.4-0.3-2.9-0.5-4.3-0.5
			c-1.5,0-2.8,0.1-4.1,0.5l-1.2,0.3l-0.5,1.1c-0.1,0.3-0.3,0.7-0.4,1c-0.5,1.5-0.8,2.6-1.1,3.4c-0.9,0.7-1.7,1.2-2.2,1.6
			c-0.3-0.3-0.6-0.6-1-0.9c-1.9-1.5-4.3-2.2-7-2.2c-1.9,0-3.6,0.4-5.2,1.3l0,0l0,0c-0.1,0.1-0.3,0.1-0.4,0.2c-0.9-0.7-2-1-3.2-1
			h-4.8l-0.7,1.1c-0.3,0.5-0.6,1-0.8,1.5c-1.6-1.4-3.4-2.3-5.5-2.8c0.4,2.2,0.6,4.4,0.6,6.6c0,5-1,9.8-2.9,14.4
			c-0.4,1.1-0.9,2.1-1.5,3.1c0.3,0,0.7,0,1,0c2.3,0,4.5-0.3,6.3-1c1.3-0.5,2.5-1.2,3.7-2.1c0.4,0.5,0.9,0.9,1.4,1.3
			c1.4,1,3,1.5,4.8,1.5c2.2,0,4.3-0.5,5.9-1.7c1.5,1.2,3.3,1.7,5.2,1.7c2.2,0,4.1-0.7,5.7-2.2l0,0c0.4-0.4,0.8-0.9,1.1-1.4
			c0.3,0.4,0.6,0.8,1,1.1l0,0c1.8,1.7,4.1,2.4,6.7,2.4c2.5,0,4.7-0.5,6.4-2l0,0l0,0c0.4-0.3,0.7-0.7,1-1c0.5,0.5,1.1,1,1.8,1.4l0,0
			l0,0c2.3,1.3,5.1,1.9,8.4,1.9c3.4,0,6.4-0.8,8.8-2.5c0.5-0.4,0.9-0.8,1.3-1.2c0.2,0.3,0.5,0.6,0.8,0.9l0,0l0,0
			c1.6,1.6,3.5,2.4,5.7,2.4s4.1-0.8,5.7-2.3l0,0l0,0c0.5-0.5,0.8-1,1.2-1.5c0.9,1.1,1.9,1.9,3.1,2.6l0,0l0,0
			c1.8,0.9,3.7,1.4,5.8,1.4c1.3,0,2.6-0.2,3.8-0.8c1.1,0.6,2.3,0.8,3.5,0.8c2,0,3.8-0.7,5.3-2c0.6-0.6,1.1-1.2,1.4-1.8
			c0.1,0.1,0.3,0.3,0.4,0.4c2.6,2.6,6.1,3.7,10.2,3.7c2.3,0,4.5-0.3,6.3-1c1.4-0.5,2.7-1.3,3.9-2.3l0.6-0.5l0.2-0.8
			c0.2-0.7,0.2-1.4,0.2-2.2c0-0.5,0-0.9-0.1-1.4c0.7,2,1.5,3.9,2.4,5.7L202,56l0.8,0.4c0.7,0.3,1.7,0.5,2.7,0.7l0,0
			c1.1,0.2,2.1,0.3,3.2,0.3c1.9,0,3.6-0.2,5-0.8c1.9-0.8,3.3-2.2,4.2-4.1l0,0c1.3-2.9,2.5-6.8,3.7-11.5l0,0l0,0
			c0.1-0.6,0.3-1.1,0.3-1.7C221.9,37.6,221.3,36.3,220.3,35.3z"/>
		<path id="outline" class="st4" d="M220.3,29.7L220.3,29.7L220.3,29.7c-1.5-1.5-3.5-2.1-5.7-2.1c-2.1,0-4,0.5-5.7,1.7l-0.2,0.1
			c-1.4-1.2-3.1-1.6-4.9-1.6h-4.9h-1.3l-0.7,1.1c-0.3,0.4-0.5,0.8-0.7,1.3c-2.4-2-5.3-2.9-8.7-2.9c-3.6,0-6.8,1.2-9.3,3.6
			c-0.3,0.3-0.6,0.6-0.9,1v-3c0-2.2-0.7-4.1-2.3-5.6l0,0l0,0c-1.5-1.4-3.4-1.9-5.4-1.9c-1.5,0-3,0.2-4.2,0.9c-1.2,0.6-2.2,1.4-3,2.4
			l-1,1.2l0.6,1.4c0.1,0.2,0.2,0.5,0.2,0.8c-2.7,0.4-5,1.5-6.9,3.5l0,0l0,0c-2,2.1-3.1,4.7-3.4,7.8c-1.2-0.7-2.5-1-3.9-1
			c-1.9,0-3.6,0.6-5,1.8c-0.3-0.5-0.6-1-1-1.5l0,0l0,0c-0.2-0.2-0.3-0.4-0.5-0.6c0.7-1.2,1-2.6,1-4c0-1.2-0.1-2.4-0.6-3.4l-0.3-0.7
			l-0.7-0.4c-1.2-0.7-2.6-1.2-4.2-1.6c-1.6-0.4-3.3-0.6-5-0.6c-3.6,0-6.8,0.9-9.2,2.9c-0.2-0.4-0.4-0.8-0.6-1.1l-0.7-1.1h-2.3v-4.4
			l-1.9-0.4c-1.4-0.3-2.9-0.5-4.3-0.5c-1.5,0-2.8,0.1-4.1,0.5l-1.2,0.3l-0.5,1.1c-0.1,0.3-0.3,0.7-0.4,1c-0.5,1.5-0.8,2.6-1.1,3.4
			c-0.9,0.7-1.7,1.2-2.2,1.6c-0.3-0.3-0.6-0.6-1-0.9c-1.9-1.5-4.3-2.2-7-2.2c-1.9,0-3.6,0.4-5.2,1.3l0,0l0,0
			c-0.1,0.1-0.3,0.1-0.4,0.2c-0.9-0.7-2-1-3.2-1h-4.8l-0.7,1.1c-0.3,0.5-0.6,1-0.8,1.5c-2.4-2.2-5.5-3.2-9-3.2
			c-3.6,0-6.8,1.2-9.3,3.6c-0.6,0.5-1.1,1.1-1.5,1.7c-0.1-0.2-0.3-0.5-0.4-0.7c-0.8-1.1-1.8-2.1-3-2.8c-0.2-1.6-1-3-2.4-4
			c-1.5-1.1-3.4-1.5-5.3-1.5c-1.3,0-2.6,0.2-3.8,0.7c-1.2,0.4-2.3,1.1-3.1,2.2l-0.5,0.4v2.4c-0.7,0.5-1.3,1-1.9,1.6
			c-0.7-1.9-1.8-3.5-3.4-4.8l0,0l0,0c-2.5-2-5.5-2.9-9-2.9c-3.4,0-6.4,0.8-8.8,2.6l0,0l0,0c-2.7,2-4.1,4.8-4.1,8.2
			c0,2.3,0.7,4.4,2.1,6.1l-0.3,0.4c-1,1.7-1.4,3.7-1.4,5.8c0,2.3,0.6,4.4,1.9,6.4l0.7,1.1h19.8l0.7-0.7c0.8-0.8,1.4-1.7,1.8-2.8
			c0.6,0.6,1.2,1.1,1.8,1.6c0.1,1.9,0.9,3.5,2.5,4.6c1.5,1.1,3.3,1.5,5.2,1.5c2.7,0,5.2-0.7,6.9-2.7l0.6-0.7v-1.7
			c0.6-0.3,1.1-0.7,1.6-1.2c0.7-0.7,1.3-1.5,1.8-2.3c0.4,0.5,0.9,1.1,1.4,1.6c2.6,2.6,6.1,3.7,10.2,3.7c2.3,0,4.5-0.3,6.3-1
			c1.3-0.5,2.5-1.2,3.7-2.1c0.4,0.5,0.9,0.9,1.4,1.3c1.4,1,3,1.5,4.8,1.5c2.2,0,4.3-0.5,5.9-1.7c1.5,1.2,3.3,1.7,5.2,1.7
			c2.2,0,4.1-0.7,5.7-2.2l0,0c0.4-0.4,0.8-0.9,1.1-1.4c0.3,0.4,0.6,0.8,1,1.1l0,0l0,0c1.8,1.7,4.1,2.4,6.7,2.4c2.5,0,4.7-0.5,6.4-2
			l0,0l0,0c0.4-0.3,0.7-0.7,1-1c0.5,0.5,1.1,1,1.8,1.4l0,0l0,0c2.3,1.3,5.1,1.9,8.4,1.9c3.4,0,6.4-0.8,8.8-2.5
			c0.5-0.4,0.9-0.8,1.3-1.2c0.2,0.3,0.5,0.6,0.8,0.9l0,0l0,0c1.6,1.6,3.5,2.4,5.7,2.4s4.1-0.8,5.7-2.3l0,0l0,0
			c0.5-0.5,0.8-1,1.2-1.5c0.9,1.1,1.9,1.9,3.1,2.6l0,0l0,0c1.8,0.9,3.7,1.4,5.8,1.4c1.3,0,2.6-0.2,3.8-0.8c1.1,0.6,2.3,0.8,3.5,0.8
			c2,0,3.8-0.7,5.3-2c0.6-0.6,1.1-1.2,1.4-1.8c0.1,0.1,0.3,0.3,0.4,0.4c2.6,2.6,6.1,3.7,10.2,3.7c2.3,0,4.5-0.3,6.3-1
			c1.4-0.5,2.7-1.3,3.9-2.3l0.6-0.5l0.2-0.8c0.2-0.7,0.2-1.4,0.2-2.2c0-0.5,0-0.9-0.1-1.4c0.7,2,1.5,3.9,2.4,5.7l0.4,0.8l0.8,0.4
			c0.7,0.3,1.7,0.5,2.7,0.7l0,0l0,0c1.1,0.2,2.1,0.3,3.2,0.3c1.9,0,3.6-0.2,5-0.8c1.9-0.8,3.3-2.2,4.2-4.1l0,0l0,0
			c1.3-2.9,2.5-6.8,3.7-11.5l0,0l0,0c0.3-1.2,0.4-2.3,0.4-3.4C222.3,32.8,221.6,31.1,220.3,29.7z"/>
		<g id="fill">
			<path class="st5" d="M208.4,42.2v0.5c0,0.2,0,0.4,0,0.5c0.2,0.1,0.3,0.1,0.4,0.1c0.4,0,0.6-0.3,0.6-0.8c0-1.3,0.2-3.9,0.5-7.6
				c0.2-2,0.3-3.2,0.3-3.6c1.2-0.8,2.7-1.2,4.4-1.2s3,0.5,4,1.4c0.8,0.8,1.2,1.9,1.2,3.3c0,0.9-0.1,1.8-0.4,2.8
				c-1.2,4.7-2.4,8.4-3.6,11.2c-0.6,1.4-1.6,2.4-2.9,2.9c-1,0.4-2.3,0.6-4.1,0.6c-0.9,0-1.9-0.1-2.8-0.2c-0.9-0.2-1.6-0.3-2.1-0.6
				c-1.9-3.9-3.4-8.2-4.7-12.9c-0.4-0.4-0.7-1-1-1.7s-0.4-1.5-0.4-2.3c0-1.6,0.4-3,1.2-4.2c0,0,1.6,0,4.9,0c1.7,0,3,0.5,3.8,1.5
				c0.6,0.7,1,1.8,1.2,3.2C208.6,37.4,208.4,39.8,208.4,42.2z"/>
			<path class="st5" d="M188.3,52.4c-3.6,0-6.4-1-8.5-3s-3.2-4.8-3.2-8.4s1.1-6.4,3.3-8.5c2-1.9,4.6-2.9,7.7-2.9s5.6,0.9,7.5,2.6
				s2.8,3.9,2.8,6.4c0,2.3-0.8,3.9-2.3,5.1c-1.4,1.1-3.4,1.6-5.9,1.6c-1.8,0-3.4-0.4-4.7-1.2c-0.1,0.1-0.2,0.2-0.2,0.4
				c0,0.4,0.5,0.8,1.5,1.1c1,0.4,2.2,0.5,3.5,0.5s2.5-0.2,3.6-0.5s1.9-0.7,2.6-1.2c0.3,0.3,0.6,0.8,0.7,1.5c0.2,0.7,0.3,1.4,0.3,2
				s-0.1,1.1-0.2,1.6c-1,0.9-2.1,1.5-3.1,1.9C192.2,52.2,190.4,52.4,188.3,52.4z M188,39.1c0.7,0,1-0.3,1-0.8s-0.3-0.7-1-0.7
				s-1.1,0.4-1.2,1.1C187.1,39,187.5,39.1,188,39.1z"/>
			<path class="st5" d="M165.5,37.8c-0.1-0.1-0.3-0.2-0.5-0.2c-0.3,0-0.5,0.2-0.6,0.6c-0.1,0.4-0.2,1.2-0.2,2.5v2
				c0,0.4,0,0.6,0.1,0.8c0.1,0.1,0.2,0.2,0.4,0.2s0.4,0,0.4-0.1V41C165.3,39.7,165.4,38.6,165.5,37.8z M164.1,26.2
				c0.7-0.8,1.4-1.4,2.3-1.8c0.8-0.4,1.9-0.6,3.2-0.6c1.6,0,2.8,0.4,3.8,1.3s1.5,2.2,1.5,3.8v13c0,2,0.5,3.2,1.4,3.8
				c0,0.1,0,0.2,0,0.4v0.4c0,1.9-0.6,3.3-1.7,4.4c-1,0.9-2.2,1.4-3.7,1.4c-1,0-1.9-0.2-2.6-0.7c-0.9-0.5-1.5-1.2-1.8-2.1
				c-0.4,0-0.7,0.2-0.7,0.7c0,0.2,0.1,0.4,0.2,0.7c0.2,0.3,0.4,0.5,0.6,0.7c-0.8,0.5-1.8,0.7-3,0.7c-1.7,0-3.2-0.4-4.6-1.1
				c-1.4-0.8-2.6-1.9-3.4-3.5c-1-1.8-1.5-3.9-1.5-6.5c0-3.4,0.9-6,2.8-7.9c1.9-1.9,4.3-2.9,7.2-2.9c1.7,0,3.2,0.3,4.5,1
				c0.1-0.1,0.2-0.3,0.2-0.5c0-0.4-0.5-0.7-1.4-1s-1.9-0.4-2.8-0.4C164.6,28,164.4,27,164.1,26.2z"/>
			<path class="st5" d="M143.9,42.3c1.1-1.1,2.4-1.7,4-1.7s2.9,0.6,4,1.7c1.1,1.1,1.7,2.5,1.7,4.1s-0.6,2.9-1.7,4
				c-1.1,1.1-2.5,1.7-4,1.7s-2.9-0.6-4-1.7c-1.1-1.1-1.6-2.5-1.6-4C142.3,44.8,142.8,43.4,143.9,42.3z"/>
			<path class="st5" d="M132.2,36.3c-0.3,0.1-0.5,0.3-0.5,0.6v0.2c0,0.1,0,0.1,0,0.1c0.1,0,0.3,0,0.6,0h0.5c1.5,0,2.9,0.2,4.2,0.7
				c1.3,0.4,2.4,1.2,3.2,2.2c0.9,1.1,1.4,2.6,1.4,4.3c0,2.7-0.9,4.7-2.7,6.1c-1.8,1.4-4.3,2.1-7.4,2.1c-3.1,0-5.5-0.5-7.2-1.5
				s-2.6-2.5-2.6-4.5c0-0.7,0.2-1.4,0.5-2s0.7-1.1,1.1-1.3c0.7,0.6,1.7,1.1,3.1,1.6c1.4,0.4,2.8,0.7,4.3,0.7c0.6,0,0.9-0.2,0.9-0.5
				c0-0.2,0-0.3-0.1-0.4c-0.1,0-0.2,0-0.3,0H131c-2.8,0-5-0.6-6.6-1.7c-1.9-1.3-2.8-3-2.8-5.3s0.8-4.1,2.5-5.5
				c1.9-1.6,4.4-2.3,7.7-2.3c1.6,0,3.1,0.2,4.5,0.5s2.6,0.8,3.6,1.4c0.2,0.5,0.4,1.3,0.4,2.4c0,1.6-0.4,2.8-1.3,3.7
				c-0.7-0.4-1.5-0.7-2.4-0.9c-0.9-0.3-1.8-0.4-2.6-0.4S132.4,36.3,132.2,36.3z"/>
			<path class="st5" d="M106.7,39.3h1.2c0.7,0,1-0.2,1-0.7c0-0.1,0-0.1,0-0.2h-4.4c-0.3-0.9-0.4-1.9-0.4-3.1c0-1.1,0.1-2.1,0.3-2.8
				c0.7-0.5,1.8-1.2,3.1-2.2c0.4-0.9,0.8-2.3,1.4-4.3c0.1-0.3,0.2-0.5,0.3-0.8c1-0.3,2.2-0.4,3.5-0.4s2.6,0.1,3.8,0.4V30h3.4
				c0.8,1.2,1.1,2.5,1.1,4.1c0,0.7-0.1,1.4-0.3,2.2c-0.2,0.8-0.5,1.4-0.8,1.9h-2.8v3c0,1.7,0.7,2.5,2.1,2.5h0.8
				c0.3,1,0.4,1.9,0.4,2.6c0,1.8-0.6,3.2-1.7,4.2s-2.7,1.4-4.9,1.4c-2.1,0-3.8-0.6-5.1-1.8c-1.3-1.2-1.9-3-1.9-5.3L106.7,39.3
				L106.7,39.3z"/>
			<path class="st5" d="M103.3,42.1c0,0.9,0.1,1.7,0.3,2.3c0.2,0.6,0.6,1,1.1,1.4c0,0.1,0,0.2,0,0.4v0.4c0,1.8-0.5,3.2-1.6,4.2
				c-1,1-2.4,1.5-4,1.5s-2.9-0.5-4-1.4c-1.2-1.1-1.8-2.7-1.8-4.9c0-0.9,0-1.7,0.1-2.4s0.1-1.2,0.2-1.5c0-0.3,0.1-0.6,0.1-0.8
				c0-0.3,0.1-0.7,0.1-1.2s-0.1-0.9-0.2-1.1c-0.1-0.2-0.3-0.3-0.6-0.3c-0.2,0-0.4,0.1-0.6,0.2l0.3,3.2c-0.2,1.3-0.4,2.7-0.4,4.2
				s0.3,2.8,1,4.1c-1.3,1.3-3.1,2-5.4,2c-1.3,0-2.5-0.3-3.4-1c-1.1-0.8-1.7-1.8-1.7-3.1v-9.6c-0.8-1.1-1.2-2.4-1.2-4s0.4-3,1.2-4.2
				h3.5c0.9,0,1.7,0.3,2.4,1c-0.6,0.5-0.9,1-0.9,1.3c0,0.4,0.2,0.6,0.7,0.6c0.6-1,1.4-1.8,2.6-2.5s2.5-1,4-1c2.2,0,4.1,0.6,5.5,1.7
				c1.8,1.4,2.7,3.6,2.7,6.6L103.3,42.1z"/>
			<path class="st5" d="M71.9,52.4c-3.6,0-6.4-1-8.5-3c-2.1-2-3.2-4.8-3.2-8.4s1.1-6.4,3.3-8.5c2-1.9,4.6-2.9,7.7-2.9
				s5.6,0.9,7.5,2.6s2.8,3.9,2.8,6.4c0,2.3-0.8,3.9-2.3,5.1c-1.4,1.1-3.4,1.6-5.9,1.6c-1.8,0-3.4-0.4-4.7-1.2
				c-0.1,0.1-0.2,0.2-0.2,0.4c0,0.4,0.5,0.8,1.5,1.1c1,0.4,2.2,0.5,3.5,0.5s2.5-0.2,3.6-0.5s1.9-0.7,2.6-1.2
				c0.3,0.3,0.6,0.8,0.7,1.5c0.2,0.7,0.3,1.4,0.3,2s-0.1,1.1-0.2,1.6c-1,0.9-2.1,1.5-3.1,1.9C75.9,52.2,74.1,52.4,71.9,52.4z
				 M71.6,39.1c0.7,0,1-0.3,1-0.8s-0.3-0.7-1-0.7s-1.1,0.4-1.2,1.1C70.8,39,71.2,39.1,71.6,39.1z"/>
			<path class="st5" d="M38.7,40.8c0-2.9,0.8-5.4,2.4-7.3c1.4-1.8,3.3-2.9,5.7-3.5c0-0.5-0.2-0.7-0.5-0.7c-0.2,0-0.5,0.1-0.9,0.2
				s-0.8,0.3-1.1,0.4v-2c0.4-0.6,1.1-1,2-1.3c0.9-0.4,1.9-0.5,3-0.5c1.7,0,3,0.3,3.9,1c1,0.7,1.5,1.7,1.5,3.1v0.4
				c3,1.4,4.5,3.6,4.5,6.6c0,1.6-0.5,2.9-1.5,3.9s-2.3,1.5-3.9,1.5c-1.3,0-2.4-0.3-3.3-1c-0.9-0.7-1.4-1.6-1.5-2.8
				c-0.6,0-0.9,0.2-0.9,0.6c0,1,0.5,1.8,1.4,2.6c1.1,0.9,2.4,1.4,4,1.4c0.9,0,1.7-0.1,2.4-0.4c0.8-0.3,1.4-0.6,1.8-0.9
				c0.8,1.2,1.1,2.5,1.1,4s-0.6,2.9-1.9,4.1c-1.3,1.2-2.9,1.8-5,1.9v0.2c0,0.4,0.3,0.7,0.8,0.7s1.2-0.1,1.9-0.4v1.5
				c-1.1,1.3-2.8,1.9-5.1,1.9c-1.6,0-2.9-0.3-3.8-1c-1-0.7-1.5-1.7-1.5-3.1V51c-1.7-0.9-3-2.2-4-4C39.1,45.1,38.7,43.1,38.7,40.8z"
				/>
			<path class="st5" d="M38.1,35.2c0,2.1-0.6,3.9-1.9,5.3c-1.4,1.6-3.4,2.6-6.1,3.2c0,0.5,0.2,0.8,0.7,0.8c0.8,0,1.7-0.3,2.9-0.8
				s2-1.1,2.6-1.8c1.2,1.3,1.9,2.9,1.9,5c0,2-0.6,3.6-1.7,4.8H18.9c-1-1.5-1.5-3.2-1.5-5s0.4-3.4,1.1-4.6c2.6-0.5,4.9-1.4,7-2.7
				s3.1-2.7,3.1-4.2c0-0.4-0.1-0.7-0.3-1c-0.2-0.3-0.4-0.4-0.7-0.4c-0.6,0-1,0.3-1,1s0.2,1.2,0.7,1.5c-0.6,1-1.6,1.8-2.9,2.6
				s-2.6,1.4-3.9,1.7C18.2,39,17,36.9,17,34.3s1-4.7,3.1-6.3c1.9-1.4,4.4-2.2,7.4-2.2s5.5,0.8,7.5,2.4
				C37.1,29.9,38.1,32.3,38.1,35.2z"/>
		</g>
	</g>
</g>
</svg>
